<svg version="1" xmlns="http://www.w3.org/2000/svg" width="346.667" height="346.667" viewBox="0 0 260.000000 260.000000"><path d="M0 130v130h260V0H0v130zm137.7-13.3c-10.4 20.8-22.7 45.1-27.4 54l-8.4 16.3H83.8l2-3.3c1.1-1.7 13.5-26 27.6-54L139.1 79h17.6l-19 37.7zm103.3-11c.4.4-.4 5-1.8 10.1-2.5 9.1-2.6 9.4-5.1 8.8-6.2-1.5-16-1.8-19.7-.6-5 1.6-10.9 5.5-13 8.7-.9 1.5-3.1 10.9-5 21.7-1.9 10.5-3.6 20.3-4 21.8l-.6 2.8h-18l.5-2.8c.3-1.5 3.1-18.1 6.3-36.9l5.9-34.3h17.2l-.8 4.2c-1.6 8.1-1.3 8.4 3.5 4 8-7.4 13.8-9.4 25.5-8.7 4.6.2 8.7.8 9.1 1.2zM39.4 158c1.9 1.7 3.8 4.4 4.1 6 1.4 6.6-3.9 14.2-10.9 15.5-7.7 1.5-15.2-5.3-14.2-12.9.9-7.3 5.8-11.6 13.3-11.6 3.3 0 5 .7 7.7 3z"/></svg>